<svg xmlns="http://www.w3.org/2000/svg" xmlns:xlink="http://www.w3.org/1999/xlink" viewBox="0 0 1089.94 121.2"><defs><style>.cls-1{fill:#060706;}.cls-2{fill:#7b898c;}.cls-3{fill:url(#Degradado_sin_nombre_3);}</style><linearGradient id="Degradado_sin_nombre_3" x1="-75.21" y1="569.86" x2="-73.08" y2="569.86" gradientTransform="translate(-8470.12 -1084.53) rotate(-90) scale(14.89)" gradientUnits="userSpaceOnUse"><stop offset="0" stop-color="#1871b6"/><stop offset="1" stop-color="#32a7df"/></linearGradient></defs><title>Asset 1</title><g id="Layer_2" data-name="Layer 2"><g id="Capa_1" data-name="Capa 1"><polygon class="cls-1" points="202.3 2.67 202.3 17.82 153.29 17.82 153.29 53.47 202.3 53.47 202.3 68.62 153.29 68.62 153.29 119.42 135.46 119.42 135.46 2.67 202.3 2.67"/><path class="cls-1" d="M363.61,17.82c14.26,11.59,20.5,25.84,20.5,41.89S377,90,363.61,101.6c-14.26,11.59-31.19,17.82-50.8,17.82s-36.54-6.24-50.8-17.82-20.5-25.84-20.5-41.89,7.13-30.3,20.5-41.89C276.27,6.24,293.21,0,312.81,0s37.43,6.24,50.8,17.82M313.7,16Q291,16,276.27,29.41c-10.69,8.91-15.15,18.72-15.15,31.19s5.35,23.17,16,31.19a56.7,56.7,0,0,0,37.43,13.37q22.73,0,37.43-13.37c10.69-8.91,15.15-19.61,15.15-31.19,0-12.48-5.35-23.17-15.15-31.19S328,16,313.7,16"/><path class="cls-1" d="M461.64,81.1h-16v37.43H427.78V2.67H467c11.59.89,20.5,5.35,28.52,11.59,8.91,8,14.26,16.93,14.26,27.63s-4.46,20.5-14.26,28.52c-6.24,5.35-11.58,8-14.26,8.91l31.19,40.1H490.16Zm-16-63.28v49h16a31.78,31.78,0,0,0,20.5-7.13c5.35-4.46,8.91-10.69,8.91-16.93,0-7.13-2.67-12.48-8.91-16.93-5.35-6.24-12.48-8-20.5-8Z"/><path class="cls-2" d="M671.07,90.9l13.37,9.8c-16.93,12.48-33.87,18.72-52.58,18.72-19.61,0-36.54-6.24-50.8-17.82s-20.5-25.85-20.5-41.89,7.13-30.3,20.5-41.89C595.32,6.24,611.36,0,631.86,0c18.72,0,35.65,6.24,52.58,18.71l-13.37,10.7c-12.48-8.91-25.84-14.26-39.21-14.26a56.7,56.7,0,0,0-37.43,13.37c-10.69,8.91-15.15,18.72-15.15,31.19s5.35,23.17,15.15,31.19a56.7,56.7,0,0,0,37.43,13.37c13.37.89,26.74-4.46,39.21-13.37"/><path class="cls-2" d="M772.67,2.67l50.8,116.75H803.86L786,78.43H749.5l-17.82,41H712.07L762.87,2.67Zm7.13,59.71L768.21,34.76,755.74,62.38Z"/><path class="cls-2" d="M900.11,58.82a75.62,75.62,0,0,1-24.06-11.59c-6.24-5.35-8.91-11.58-8.91-18.71s3.57-13.37,9.8-18.72,14.26-8,23.17-8,16.93,2.67,23.17,8c3.56,2.67,6.24,7.13,8.91,14.26l-16.93,4.46c-1.78-4.46-3.56-7.13-5.35-8.91-2.67-2.67-6.24-3.56-10.69-3.56a15.57,15.57,0,0,0-10.7,3.56c-2.67,2.67-4.46,5.35-4.46,8.91s1.78,6.24,4.46,8.91a47.27,47.27,0,0,0,13.37,7.13,67.89,67.89,0,0,1,27.63,14.26C938.44,65.95,942,74,942,84.66c0,9.8-4.46,18.72-12.48,25.85-8.91,7.13-18.71,10.69-31.19,10.69s-22.28-3.56-31.19-10.69c-7.13-5.35-10.69-13.37-12.48-23.17L872.49,82c.89,8.91,3.56,14.26,8,17.82,5.35,4.46,10.7,6.24,17.82,6.24s13.37-1.78,17.82-6.24c5.35-4.46,7.13-8.91,7.13-15.15S920.61,74,916.16,69.52c-3.56-5.35-9.8-8-16-10.7"/><polygon class="cls-2" points="1035.58 16.93 1035.58 118.53 1017.75 118.53 1017.75 16.93 969.63 16.93 969.63 2.67 1082.81 2.67 1082.81 17.82 1035.58 17.82 1035.58 16.93"/><rect class="cls-2" x="47.23" y="87.34" width="32.08" height="32.08"/><rect class="cls-2" x="1073.9" y="102.49" width="16.04" height="16.04"/><rect class="cls-2" y="87.34" width="32.08" height="32.08"/><rect class="cls-2" x="47.23" y="42.78" width="32.08" height="32.08"/><rect class="cls-3" y="3.56" width="32.08" height="32.08"/></g></g></svg>