<svg xmlns="http://www.w3.org/2000/svg" viewBox="0 0 35 35"><defs><style>.cls-1{fill:#e95a15;}.cls-2{fill:#fff;}</style></defs><title>Asset 15</title><g id="Layer_2" data-name="Layer 2"><g id="Layer_1-2" data-name="Layer 1"><path class="cls-1" d="M17.5,0A17.5,17.5,0,1,0,35,17.5,17.5,17.5,0,0,0,17.5,0Z"/><path class="cls-1" d="M35,17.5A17.56,17.56,0,0,1,17.5,35V0A17.56,17.56,0,0,1,35,17.5Z"/><path class="cls-2" d="M32.95,17.5A15.45,15.45,0,1,1,17.5,2.05,15.5,15.5,0,0,1,32.95,17.5Z"/><path class="cls-1" d="M21.79,23.45"/><path class="cls-1" d="M26.21,18.31A3.76,3.76,0,0,0,24.09,17a2.54,2.54,0,0,0-3.79-3.3,5.1,5.1,0,0,0-4.71-3.16,5.09,5.09,0,0,0-5.09,5.09q0,.13,0,.43A4.45,4.45,0,0,0,8,20a4.46,4.46,0,0,0,4.45,4.45H23.23a3.81,3.81,0,0,0,3-6.19ZM20.59,18a.3.3,0,0,1-.22.09H18.14v3.5a.32.32,0,0,1-.32.32H15.91a.32.32,0,0,1-.32-.32v-3.5H13.36a.31.31,0,0,1-.32-.32.38.38,0,0,1,.1-.24l3.49-3.49a.34.34,0,0,1,.46,0l3.5,3.5a.31.31,0,0,1,.09.23.3.3,0,0,1-.09.22Zm0,0"/></g></g></svg>