<svg xmlns="http://www.w3.org/2000/svg" viewBox="0 0 35 35"><defs><style>.cls-1{fill:#e95a15;}.cls-2{fill:#fff;}</style></defs><title>Asset 18</title><g id="Layer_2" data-name="Layer 2"><g id="Layer_1-2" data-name="Layer 1"><path class="cls-1" d="M17.5,0A17.5,17.5,0,1,0,35,17.5,17.5,17.5,0,0,0,17.5,0Z"/><path class="cls-1" d="M35,17.5A17.56,17.56,0,0,1,17.5,35V0A17.56,17.56,0,0,1,35,17.5Z"/><path class="cls-2" d="M32.95,17.5A15.45,15.45,0,1,1,17.5,2.05,15.5,15.5,0,0,1,32.95,17.5Z"/><path class="cls-1" d="M21.79,23.45"/><path class="cls-1" d="M22.93,11.9a1.48,1.48,0,0,0-.44-1.06L21.09,9.44A1.53,1.53,0,0,0,20,9h-.09v3h3V11.9Z"/><path class="cls-1" d="M21.62,21.8,20,22.33H19.8a1.25,1.25,0,0,1-1.18-1.64l.48-1.42a2,2,0,0,1,.48-.78l3.37-3.36V13h-3.5a.48.48,0,0,1-.48-.5V9H11.49A1.5,1.5,0,0,0,10,10.49v14A1.5,1.5,0,0,0,11.49,26h9.94a1.51,1.51,0,0,0,1.51-1.49V20.79l-.55.53A2,2,0,0,1,21.62,21.8ZM12.49,14h7a.5.5,0,0,1,0,1h-7a.5.5,0,0,1,0-1Zm0,2h5a.5.5,0,0,1,0,1h-5a.5.5,0,0,1,0-1Zm0,2h5a.5.5,0,0,1,0,1h-5a.5.5,0,0,1,0-1ZM12,20.46a.5.5,0,0,1,.5-.5h5a.5.5,0,0,1,0,1h-5A.5.5,0,0,1,12,20.46Zm7.45,3.49h-3a.5.5,0,1,1,0-1h3a.5.5,0,1,1,0,1Z"/><path class="cls-1" d="M19.88,21.33l1.3-.43L20,19.72,19.56,21A.25.25,0,0,0,19.88,21.33Z"/><path class="cls-1" d="M20.59,18.9,22,20.31,25.28,17l-1.41-1.41Z"/><path class="cls-1" d="M26.71,14.19a1,1,0,0,0-1.41,0l-.72.72L26,16.33l.72-.72A1,1,0,0,0,26.71,14.19Z"/><path class="cls-1" d="M26.71,15.6h0Z"/></g></g></svg>