<svg xmlns="http://www.w3.org/2000/svg" viewBox="0 0 55.64 55.64"><defs><style>.cls-1{fill:#e95a15;}.cls-2{fill:#fff;}</style></defs><title>Asset 42</title><g id="Layer_2" data-name="Layer 2"><g id="Layer_1-2" data-name="Layer 1"><circle class="cls-1" cx="27.82" cy="27.82" r="27.82"/><circle class="cls-2" cx="27.82" cy="27.82" r="24.11"/><path class="cls-1" d="M25.08,12.21V35.66l-7.39-7.37a1.94,1.94,0,0,0-2.72,0l-1.15,1.15a1.92,1.92,0,0,0,0,2.71L26.46,44.78a1.93,1.93,0,0,0,2.72,0L41.81,32.15a1.92,1.92,0,0,0,0-2.71l-1.15-1.15a1.9,1.9,0,0,0-1.35-.56,1.84,1.84,0,0,0-1.33.56l-7.43,7.46V12.24a2,2,0,0,0-2-1.94H27a2,2,0,0,0-1.89,2"/></g></g></svg>