<svg xmlns="http://www.w3.org/2000/svg" viewBox="0 0 35 35"><defs><style>.cls-1{fill:#e95a15;}.cls-2{fill:#fff;}</style></defs><title>Asset 17</title><g id="Layer_2" data-name="Layer 2"><g id="Layer_1-2" data-name="Layer 1"><path class="cls-1" d="M17.5,0A17.5,17.5,0,1,0,35,17.5,17.5,17.5,0,0,0,17.5,0Z"/><path class="cls-1" d="M35,17.5A17.56,17.56,0,0,1,17.5,35V0A17.56,17.56,0,0,1,35,17.5Z"/><path class="cls-2" d="M32.95,17.5A15.45,15.45,0,1,1,17.5,2.05,15.5,15.5,0,0,1,32.95,17.5Z"/><path class="cls-1" d="M21.79,23.45"/><path class="cls-1" d="M15.9,11.1H11.1a1.6,1.6,0,0,0-1.6,1.6v9.6a1.61,1.61,0,0,0,1.6,1.6H23.9a1.61,1.61,0,0,0,1.6-1.6v-8a1.6,1.6,0,0,0-1.6-1.6H17.5Zm0,0"/></g></g></svg>