<svg xmlns="http://www.w3.org/2000/svg" viewBox="0 0 143.68 143.68"><defs><style>.cls-1{opacity:0.2;}.cls-2{fill:#e95a15;}.cls-3{fill:#fff;}</style></defs><title>Asset 45</title><g id="Layer_2" data-name="Layer 2"><g id="Layer_1-2" data-name="Layer 1"><g class="cls-1"><circle class="cls-2" cx="71.84" cy="71.84" r="71.84"/><circle class="cls-3" cx="71.84" cy="71.84" r="62.26"/><path class="cls-2" d="M101.51,107.83H42.16a4.47,4.47,0,0,1-4.47-4.47V40.31a4.47,4.47,0,0,1,4.47-4.47h59.35A4.47,4.47,0,0,1,106,40.31v63.06A4.47,4.47,0,0,1,101.51,107.83Zm-59.35-69a1.47,1.47,0,0,0-1.47,1.47v63.06a1.47,1.47,0,0,0,1.47,1.47h59.35a1.47,1.47,0,0,0,1.47-1.47V40.31a1.47,1.47,0,0,0-1.47-1.47Z"/><path class="cls-2" d="M59.06,60.11H47.19a1.5,1.5,0,0,1-1.5-1.5V46.74a1.5,1.5,0,0,1,1.5-1.5H59.06a1.5,1.5,0,0,1,1.5,1.5V58.61A1.5,1.5,0,0,1,59.06,60.11Zm-10.37-3h8.87V48.24H48.69Z"/><rect class="cls-2" x="67.96" y="51.19" width="29.67" height="2.97" rx="0.74" ry="0.74"/><rect class="cls-2" x="66.47" y="49.69" width="32.67" height="5.97" rx="2.24" ry="2.24"/><path class="cls-2" d="M59.06,80.14H47.19a1.5,1.5,0,0,1-1.5-1.5V66.77a1.5,1.5,0,0,1,1.5-1.5H59.06a1.5,1.5,0,0,1,1.5,1.5V78.64A1.5,1.5,0,0,1,59.06,80.14Zm-10.37-3h8.87V68.27H48.69Z"/><rect class="cls-2" x="67.96" y="71.22" width="29.67" height="2.97" rx="0.74" ry="0.74"/><rect class="cls-2" x="66.47" y="69.72" width="32.67" height="5.97" rx="2.24" ry="2.24"/><path class="cls-2" d="M59.06,99.06H47.19a1.5,1.5,0,0,1-1.5-1.5V85.69a1.5,1.5,0,0,1,1.5-1.5H59.06a1.5,1.5,0,0,1,1.5,1.5V97.56A1.5,1.5,0,0,1,59.06,99.06Zm-10.37-3h8.87V87.19H48.69Z"/><rect class="cls-2" x="67.96" y="90.14" width="29.67" height="2.97" rx="0.74" ry="0.74"/><rect class="cls-2" x="66.47" y="88.64" width="32.67" height="5.97" rx="2.24" ry="2.24"/></g></g></g></svg>