<svg xmlns="http://www.w3.org/2000/svg" viewBox="0 0 111.61 111.61"><defs><style>.cls-1{fill:#e95a15;}.cls-2{fill:#fff;}</style></defs><title>Asset 43</title><g id="Layer_2" data-name="Layer 2"><g id="Layer_1-2" data-name="Layer 1"><circle class="cls-1" cx="55.81" cy="55.81" r="55.81"/><circle class="cls-2" cx="55.81" cy="55.81" r="48.36"/><path class="cls-1" d="M55.8,38.23A17.58,17.58,0,1,0,73.39,55.81,17.6,17.6,0,0,0,55.8,38.23Zm0,0"/><path class="cls-1" d="M55.8,33.06a3.43,3.43,0,0,1-3.43-3.43V24.14a3.43,3.43,0,1,1,6.86,0v5.49a3.43,3.43,0,0,1-3.43,3.43Zm0,0"/><path class="cls-1" d="M55.8,78.55A3.43,3.43,0,0,0,52.37,82v5.49a3.43,3.43,0,1,0,6.86,0V82a3.43,3.43,0,0,0-3.43-3.43Zm0,0"/><path class="cls-1" d="M71.89,39.72a3.42,3.42,0,0,1,0-4.85L75.77,31a3.43,3.43,0,0,1,4.85,4.86l-3.88,3.88a3.43,3.43,0,0,1-4.85,0Zm0,0"/><path class="cls-1" d="M39.72,71.89a3.42,3.42,0,0,0-4.85,0L31,75.77a3.43,3.43,0,1,0,4.86,4.85l3.88-3.88a3.43,3.43,0,0,0,0-4.85Zm0,0"/><path class="cls-1" d="M78.55,55.8A3.43,3.43,0,0,1,82,52.37h5.49a3.43,3.43,0,1,1,0,6.86H82a3.43,3.43,0,0,1-3.43-3.43Zm0,0"/><path class="cls-1" d="M33.06,55.8a3.43,3.43,0,0,0-3.43-3.43H24.14a3.43,3.43,0,1,0,0,6.86h5.49a3.43,3.43,0,0,0,3.43-3.43Zm0,0"/><path class="cls-1" d="M71.89,71.89a3.43,3.43,0,0,1,4.85,0l3.88,3.88a3.43,3.43,0,0,1-4.85,4.85l-3.88-3.88a3.42,3.42,0,0,1,0-4.85Zm0,0"/><path class="cls-1" d="M39.72,39.72a3.43,3.43,0,0,0,0-4.85L35.84,31A3.43,3.43,0,0,0,31,35.84l3.89,3.88a3.42,3.42,0,0,0,4.85,0Zm0,0"/></g></g></svg>