<svg xmlns="http://www.w3.org/2000/svg" viewBox="0 0 35 35"><defs><style>.cls-1{fill:#e95a15;}.cls-2{fill:#fff;}</style></defs><title>Asset 23</title><g id="Layer_2" data-name="Layer 2"><g id="Layer_1-2" data-name="Layer 1"><path class="cls-1" d="M17.5,0A17.5,17.5,0,1,0,35,17.5,17.5,17.5,0,0,0,17.5,0Z"/><path class="cls-1" d="M35,17.5A17.56,17.56,0,0,1,17.5,35V0A17.56,17.56,0,0,1,35,17.5Z"/><path class="cls-2" d="M32.95,17.5A15.45,15.45,0,1,1,17.5,2.05,15.5,15.5,0,0,1,32.95,17.5Z"/><path class="cls-1" d="M21.79,23.45"/><path class="cls-1" d="M25.4,8.15h-.31A2.28,2.28,0,0,1,25.4,9.3V26a2.28,2.28,0,0,1-.31,1.15h.31A1.15,1.15,0,0,0,26.55,26V9.3A1.15,1.15,0,0,0,25.4,8.15Z"/><path class="cls-1" d="M23.11,8.15H11.65a2.29,2.29,0,0,0-2.29,2.29V24.86a2.29,2.29,0,0,0,2.29,2.29H23.11A1.15,1.15,0,0,0,24.26,26V9.3A1.15,1.15,0,0,0,23.11,8.15Zm-6.3,3.95a2.62,2.62,0,0,1,2.62,2.62c0,1.45-.5,3.17-2.62,3.17-1.92,0-2.62-1.72-2.62-3.17A2.62,2.62,0,0,1,16.81,12.1Zm3,12h-6c-1.44,0-.95-1.32-.95-2.94s2.15-2.94,3.59-2.94h.73c1.44,0,3.59,1.32,3.59,2.94S21.25,24.13,19.82,24.13Z"/></g></g></svg>